<svg xmlns="http://www.w3.org/2000/svg" viewBox="0 0 1440 1440">
	<path fill="#ffffff" d="M720,0c397.4,0,720,322.6,720,720s-322.6,720-720,720S0,1117.4,0,720S322.6,0,720,0z M720,270
		c-122.2,0-137.5,0.5-185.5,2.7c-47.9,2.2-80.6,9.8-109.2,20.9c-29.6,11.5-54.7,26.9-79.7,51.9c-25,25-40.4,50.1-51.9,79.7
		c-11.1,28.6-18.7,61.3-20.9,109.2c-2.2,48-2.7,63.3-2.7,185.5s0.5,137.5,2.7,185.5c2.2,47.9,9.8,80.6,20.9,109.2
		c11.5,29.6,26.9,54.7,51.9,79.7c25,25,50.1,40.4,79.7,51.9c28.6,11.1,61.3,18.7,109.2,20.9c48,2.2,63.3,2.7,185.5,2.7
		s137.5-0.5,185.5-2.7c47.9-2.2,80.6-9.8,109.2-20.9c29.6-11.5,54.7-26.9,79.7-51.9c25-25,40.4-50.1,51.9-79.7
		c11.1-28.6,18.7-61.3,20.9-109.2c2.2-48,2.7-63.3,2.7-185.5s-0.5-137.5-2.7-185.5c-2.2-47.9-9.8-80.6-20.9-109.2
		c-11.5-29.6-26.9-54.7-51.9-79.7c-25-25-50.1-40.4-79.7-51.9c-28.6-11.1-61.3-18.7-109.2-20.9C857.5,270.5,842.2,270,720,270z
		M720,351.1c120.2,0,134.4,0.5,181.8,2.6c43.9,2,67.7,9.3,83.6,15.5c21,8.2,36,17.9,51.7,33.7c15.8,15.7,25.5,30.7,33.7,51.7
		c6.2,15.9,13.5,39.7,15.5,83.6c2.2,47.5,2.6,61.7,2.6,181.8s-0.5,134.4-2.6,181.8c-2,43.9-9.3,67.7-15.5,83.6
		c-8.2,21-17.9,36-33.7,51.7c-15.7,15.8-30.7,25.5-51.7,33.7c-15.9,6.2-39.7,13.5-83.6,15.5c-47.4,2.2-61.7,2.6-181.8,2.6
		s-134.4-0.5-181.8-2.6c-43.9-2-67.7-9.3-83.6-15.5c-21-8.2-36-17.9-51.7-33.7c-15.7-15.7-25.5-30.7-33.7-51.7
		c-6.2-15.9-13.5-39.7-15.5-83.6c-2.2-47.5-2.6-61.7-2.6-181.8s0.5-134.4,2.6-181.8c2-43.9,9.3-67.7,15.5-83.6
		c8.2-21,17.9-36,33.7-51.7c15.7-15.7,30.7-25.5,51.7-33.7c15.9-6.2,39.7-13.5,83.6-15.5C585.6,351.5,599.8,351.1,720,351.1
		L720,351.1z M720,488.9c-127.6,0-231.1,103.5-231.1,231.1S592.4,951.1,720,951.1S951.1,847.6,951.1,720S847.6,488.9,720,488.9
		L720,488.9z M720,870c-82.8,0-150-67.2-150-150s67.2-150,150-150s150,67.2,150,150S802.8,870,720,870z M1014.2,479.8
		c0,29.8-24.2,54-54,54c-29.8,0-54-24.2-54-54s24.2-54,54-54C990,425.8,1014.2,450,1014.2,479.8z"/>
</svg>
